<svg width="20" height="362" viewBox="0 0 20 362" fill="none" xmlns="http://www.w3.org/2000/svg">
<path d="M10.3333 17.2917L9.125 16.1917C4.83333 12.3 2 9.725 2 6.58333C2 4.00833 4.01667 2 6.58333 2C8.03333 2 9.425 2.675 10.3333 3.73333C11.2417 2.675 12.6333 2 14.0833 2C16.65 2 18.6667 4.00833 18.6667 6.58333C18.6667 9.725 15.8333 12.3 11.5417 16.1917L10.3333 17.2917Z" fill="black"/>
<path d="M9.99984 102.792L8.7915 101.692C4.49984 97.8 1.6665 95.225 1.6665 92.0833C1.6665 89.5083 3.68317 87.5 6.24984 87.5C7.69984 87.5 9.0915 88.175 9.99984 89.2333C10.9082 88.175 12.2998 87.5 13.7498 87.5C16.3165 87.5 18.3332 89.5083 18.3332 92.0833C18.3332 95.225 15.4998 97.8 11.2082 101.692L9.99984 102.792Z" fill="black"/>
<path d="M9.99984 272.792L8.7915 271.692C4.49984 267.8 1.6665 265.225 1.6665 262.083C1.6665 259.508 3.68317 257.5 6.24984 257.5C7.69984 257.5 9.0915 258.175 9.99984 259.233C10.9082 258.175 12.2998 257.5 13.7498 257.5C16.3165 257.5 18.3332 259.508 18.3332 262.083C18.3332 265.225 15.4998 267.8 11.2082 271.692L9.99984 272.792Z" fill="black"/>
<path d="M9.99984 359.772L8.7915 358.673C4.49984 354.786 1.6665 352.214 1.6665 349.076C1.6665 346.503 3.68317 344.497 6.24984 344.497C7.69984 344.497 9.0915 345.172 9.99984 346.229C10.9082 345.172 12.2998 344.497 13.7498 344.497C16.3165 344.497 18.3332 346.503 18.3332 349.076C18.3332 352.214 15.4998 354.786 11.2082 358.673L9.99984 359.772Z" fill="black"/>
<path d="M9.99984 187.958L8.7915 186.858C4.49984 182.967 1.6665 180.392 1.6665 177.25C1.6665 174.675 3.68317 172.667 6.24984 172.667C7.69984 172.667 9.0915 173.342 9.99984 174.4C10.9082 173.342 12.2998 172.667 13.7498 172.667C16.3165 172.667 18.3332 174.675 18.3332 177.25C18.3332 180.392 15.4998 182.967 11.2082 186.858L9.99984 187.958Z" fill="black"/>
<path d="M10 16L10 355" stroke="black"/>
</svg>
